<svg width="38" height="40" viewBox="0 0 38 40" fill="none" xmlns="http://www.w3.org/2000/svg">
<path d="M35.7099 25.5865C35.3468 26.5315 34.4471 27.1423 33.4169 27.1423H32.5787V38.9285C32.5787 39.52 32.0871 40 31.4815 40H24.8986V32.4997C24.8986 29.5456 22.4377 27.1423 19.4128 27.1423C16.388 27.1423 13.9271 29.5456 13.9271 32.4997V40H7.34416C6.73854 40 6.24701 39.52 6.24701 38.9285V27.1423H5.40769C4.37747 27.1423 3.4778 26.5326 3.11464 25.5876C2.75149 24.6425 3.01809 23.6032 3.79488 22.941L16.6085 11.0905C18.1818 9.6365 20.6449 9.6365 22.2172 11.0905L35.0615 22.9689C35.8054 23.6021 36.0731 24.6415 35.7099 25.5865Z" fill="#E6E6E6"/>
</svg>
