<svg width="33" height="36" viewBox="0 0 33 36" fill="none" xmlns="http://www.w3.org/2000/svg">
<path d="M7.76557 0H6.8638C6.74873 0 6.6396 0.0242399 6.53389 0.058683C6.00568 0.230427 5.61523 0.795789 5.61523 1.47398V2.09631V3.68925V4.518C5.61523 4.67199 5.64082 4.81749 5.67794 4.9568C5.8369 5.55519 6.30464 5.99198 6.8638 5.99198H7.76557C8.45527 5.99198 9.01413 5.33213 9.01413 4.518V3.68925V2.09631V1.47398C9.01413 0.659845 8.45527 0 7.76557 0Z" fill="#D9D9D9"/>
<path d="M25.5151 0H24.6133C23.9236 0 23.3647 0.659845 23.3647 1.47398V2.09631V3.68925V4.518C23.3647 5.33213 23.9236 5.99198 24.6133 5.99198H25.5151C26.2048 5.99198 26.7636 5.33213 26.7636 4.518V3.68925V2.09631V1.47398C26.7633 0.659845 26.2045 0 25.5151 0Z" fill="#D9D9D9"/>
<path d="M30.1212 3.68945H27.8884V4.51821C27.8884 5.95297 26.8235 7.12014 25.5148 7.12014H24.613C23.3043 7.12014 22.2394 5.95297 22.2394 4.51821V3.68945H10.1391V4.51821C10.1391 5.95297 9.07423 7.12014 7.76549 7.12014H6.86372C5.55491 7.12014 4.49007 5.95297 4.49007 4.51821V3.68945H2.54458C1.30531 3.68945 0.300293 4.6341 0.300293 5.79874V33.891C0.300293 35.0578 1.30525 36.0003 2.54458 36.0003H30.1209C31.3613 36.0003 32.3651 35.0576 32.3651 33.891V5.79903C32.3654 4.6344 31.3616 3.68945 30.1212 3.68945ZM29.4253 32.904L3.15856 32.8938V10.2457H29.4253V32.904Z" fill="#D9D9D9"/>
<path d="M19.1456 15.7031H26.0537C26.6533 15.7031 27.1383 15.1028 27.1383 14.3608C27.1383 13.6189 26.6531 13.0186 26.0537 13.0186H19.1456C18.546 13.0186 18.061 13.6189 18.061 14.3608C18.061 15.1025 18.546 15.7031 19.1456 15.7031Z" fill="#D9D9D9"/>
<path d="M19.1456 20.5517H26.0537C26.6533 20.5517 27.1383 19.9513 27.1383 19.2094C27.1383 18.4675 26.6531 17.8672 26.0537 17.8672H19.1456C18.546 17.8672 18.061 18.4675 18.061 19.2094C18.061 19.9513 18.546 20.5517 19.1456 20.5517Z" fill="#D9D9D9"/>
<path d="M19.1456 25.4004H26.0537C26.6533 25.4004 27.1383 24.8 27.1383 24.0581C27.1383 23.3162 26.6531 22.7158 26.0537 22.7158H19.1456C18.546 22.7158 18.061 23.3162 18.061 24.0581C18.061 24.8 18.546 25.4004 19.1456 25.4004Z" fill="#D9D9D9"/>
<path d="M19.1456 30.249H26.0537C26.6533 30.249 27.1383 29.6486 27.1383 28.9067C27.1383 28.1648 26.6531 27.5645 26.0537 27.5645H19.1456C18.546 27.5645 18.061 28.1648 18.061 28.9067C18.061 29.6486 18.546 30.249 19.1456 30.249Z" fill="#D9D9D9"/>
<path d="M6.91029 15.7031H13.8183C14.418 15.7031 14.9029 15.1028 14.9029 14.3608C14.9029 13.6189 14.4177 13.0186 13.8183 13.0186H6.91029C6.3106 13.0186 5.82568 13.6189 5.82568 14.3608C5.82574 15.1025 6.3106 15.7031 6.91029 15.7031Z" fill="#D9D9D9"/>
<path d="M6.91029 20.5517H13.8183C14.418 20.5517 14.9029 19.9513 14.9029 19.2094C14.9029 18.4675 14.4177 17.8672 13.8183 17.8672H6.91029C6.3106 17.8672 5.82568 18.4675 5.82568 19.2094C5.82574 19.9513 6.3106 20.5517 6.91029 20.5517Z" fill="#D9D9D9"/>
<path d="M6.91029 25.4004H13.8183C14.418 25.4004 14.9029 24.8 14.9029 24.0581C14.9029 23.3162 14.4177 22.7158 13.8183 22.7158H6.91029C6.3106 22.7158 5.82568 23.3162 5.82568 24.0581C5.82568 24.8 6.3106 25.4004 6.91029 25.4004Z" fill="#D9D9D9"/>
<path d="M6.91029 30.249H13.8183C14.418 30.249 14.9029 29.6486 14.9029 28.9067C14.9029 28.1648 14.4177 27.5645 13.8183 27.5645H6.91029C6.3106 27.5645 5.82568 28.1648 5.82568 28.9067C5.82574 29.6486 6.3106 30.249 6.91029 30.249Z" fill="#D9D9D9"/>
</svg>
