<svg width="30" height="36" viewBox="0 0 30 36" fill="none" xmlns="http://www.w3.org/2000/svg">
<path d="M15 15.6841C17.8854 15.6841 20.2331 13.3363 20.2331 10.4502C20.2331 7.56479 17.8855 5.21716 15 5.21716C12.1146 5.21716 9.76709 7.56466 9.76709 10.4502C9.76709 13.3361 12.1147 15.6841 15 15.6841ZM15 8.14951C16.2686 8.14951 17.3008 9.18155 17.3008 10.4501C17.3008 11.7192 16.2686 12.7518 15 12.7518C13.7314 12.7518 12.6994 11.7192 12.6994 10.4501C12.6994 9.18162 13.7315 8.14951 15 8.14951Z" fill="#0F2A1D"/>
<path d="M29.9999 13.4591C29.9999 12.6493 29.3434 11.993 28.5337 11.993H25.2282C26.2912 5.32206 21.1256 0 14.9999 0C8.91977 0 3.69881 5.27631 4.77121 11.9929H1.46617C0.656447 11.9929 0 12.6493 0 13.459V33.9166C0 34.7263 0.656447 35.3827 1.46617 35.3827H28.5339H28.534H28.534C29.321 35.3827 30 34.7444 30 33.9166C29.9999 33.0053 29.9999 14.364 29.9999 13.4591ZM24.4008 14.9381C24.4014 14.9366 24.402 14.935 24.4026 14.9334C24.4036 14.9307 24.4048 14.9279 24.4057 14.9252H27.0675V22.2049H21.0287C22.2003 19.9877 23.5225 17.2994 24.4008 14.9381ZM14.9999 2.93228C19.6755 2.93228 23.8439 7.30184 21.9735 13.002C20.6256 17.1099 17.2093 23.225 14.9999 26.9454C12.7969 23.2355 9.37394 17.1087 8.02622 13.002C6.15155 7.28767 10.3353 2.93228 14.9999 2.93228ZM8.32158 32.4505H2.93228V14.9252H5.5942C6.02543 16.1112 6.90668 18.1862 8.32158 20.9556V32.4505ZM11.2539 32.4505V26.3434C12.6573 28.7914 13.7432 30.5308 13.7568 30.5524C14.3307 31.4698 15.6694 31.4692 16.2428 30.5524C16.2568 30.53 17.4151 28.6749 18.8856 26.0993L25.0627 32.4505H11.2539ZM27.0677 30.3062L22.0403 25.1372H27.0677V30.3062Z" fill="#0F2A1D"/>
</svg>
