<svg width="36" height="40" viewBox="0 0 36 40" fill="none" xmlns="http://www.w3.org/2000/svg">
<path fill-rule="evenodd" clip-rule="evenodd" d="M16 23C17.8565 23 19.637 22.2625 20.9497 20.9497C22.2625 19.637 23 17.8565 23 16C23 14.1435 22.2625 12.363 20.9497 11.0503C19.637 9.7375 17.8565 9 16 9C14.1435 9 12.363 9.7375 11.0503 11.0503C9.7375 12.363 9 14.1435 9 16C9 17.8565 9.7375 19.637 11.0503 20.9497C12.363 22.2625 14.1435 23 16 23ZM16 13C16.7956 13 17.5587 13.3161 18.1213 13.8787C18.6839 14.4413 19 15.2044 19 16C19 16.7956 18.6839 17.5587 18.1213 18.1213C17.5587 18.6839 16.7956 19 16 19C15.2044 19 14.4413 18.6839 13.8787 18.1213C13.3161 17.5587 13 16.7956 13 16C13 15.2044 13.3161 14.4413 13.8787 13.8787C14.4413 13.3161 15.2044 13 16 13Z" fill="#9747FF"/>
<path fill-rule="evenodd" clip-rule="evenodd" d="M1 16.246C1 24.732 9.764 39 16 39C22.236 39 31 24.732 31 16.246C31 7.834 24.292 1 16 1C7.708 1 1 7.834 1 16.246ZM27 16.246C27 22.806 19.51 35 16 35C12.49 35 5 22.806 5 16.246C5 10.026 9.934 5 16 5C22.066 5 27 10.026 27 16.246Z" fill="#9747FF"/>
</svg>
