<svg width="78" height="78" viewBox="0 0 78 78" fill="none" xmlns="http://www.w3.org/2000/svg">
<circle cx="39" cy="39" r="39" fill="#6B9071"/>
<g clip-path="url(#clip0_152_2547)">
<path d="M56.4797 46.7418V51.6107H61.3486V46.7418H56.4797ZM61.3486 61.3485H56.4797V56.4796H61.3486V61.3485ZM56.4797 51.6107V56.4796H51.6108V51.6107H56.4797ZM46.7419 37.004H51.6108V41.8729H56.4797V46.7418H46.7419V37.004ZM61.3486 37.004V41.8729H56.4797V37.004H61.3486ZM46.7419 56.4796H51.6108V61.3485H39.4385V56.4796H41.873V51.6107H46.7419V56.4796ZM37.0041 19.9628H41.873V24.8317H37.0041V19.9628ZM41.873 37.004H37.0041V29.7006H41.873V37.004ZM58.9142 32.1351C59.5598 32.1351 60.179 31.8786 60.6356 31.422C61.0921 30.9655 61.3486 30.3463 61.3486 29.7006V19.9628C61.3486 19.3171 61.0921 18.6979 60.6356 18.2414C60.179 17.7848 59.5598 17.5283 58.9142 17.5283H49.1763C48.5307 17.5283 47.9115 17.7848 47.4549 18.2414C46.9984 18.6979 46.7419 19.3171 46.7419 19.9628V29.7006C46.7419 30.3463 46.9984 30.9655 47.4549 31.422C47.9115 31.8786 48.5307 32.1351 49.1763 32.1351H58.9142ZM56.4797 27.2661H51.6108V22.3972H56.4797V27.2661ZM17.5284 19.9628V39.4384H22.3973V32.1351H29.7007C30.3464 32.1351 30.9656 31.8786 31.4221 31.422C31.8787 30.9655 32.1352 30.3463 32.1352 29.7006V19.9628C32.1352 19.3171 31.8787 18.6979 31.4221 18.2414C30.9656 17.7848 30.3464 17.5283 29.7007 17.5283H19.9629C19.3172 17.5283 18.698 17.7848 18.2414 18.2414C17.7849 18.6979 17.5284 19.3171 17.5284 19.9628ZM22.3973 22.3972H27.2662V27.2661H22.3973V22.3972ZM17.5284 49.1763V58.9141C17.5284 59.5597 17.7849 60.179 18.2414 60.6355C18.698 61.0921 19.3172 61.3485 19.9629 61.3485H29.7007C30.3464 61.3485 30.9656 61.0921 31.4221 60.6355C31.8787 60.179 32.1352 59.5597 32.1352 58.9141V51.6107H41.873V41.8729H37.0041V46.7418H34.5696V37.004H29.7007V46.7418H19.9629C19.3172 46.7418 18.698 46.9983 18.2414 47.4548C17.7849 47.9114 17.5284 48.5306 17.5284 49.1763ZM22.3973 51.6107H27.2662V56.4796H22.3973V51.6107Z" fill="#E6E6E6"/>
<path d="M56.4797 46.7418V51.6107H61.3486V46.7418H56.4797ZM61.3486 61.3485H56.4797V56.4796H61.3486V61.3485ZM56.4797 51.6107V56.4796H51.6108V51.6107H56.4797ZM46.7419 37.004H51.6108V41.8729H56.4797V46.7418H46.7419V37.004ZM61.3486 37.004V41.8729H56.4797V37.004H61.3486ZM46.7419 56.4796H51.6108V61.3485H39.4385V56.4796H41.873V51.6107H46.7419V56.4796ZM37.0041 19.9628H41.873V24.8317H37.0041V19.9628ZM41.873 37.004H37.0041V29.7006H41.873V37.004ZM58.9142 32.1351C59.5598 32.1351 60.179 31.8786 60.6356 31.422C61.0921 30.9655 61.3486 30.3463 61.3486 29.7006V19.9628C61.3486 19.3171 61.0921 18.6979 60.6356 18.2414C60.179 17.7848 59.5598 17.5283 58.9142 17.5283H49.1763C48.5307 17.5283 47.9115 17.7848 47.4549 18.2414C46.9984 18.6979 46.7419 19.3171 46.7419 19.9628V29.7006C46.7419 30.3463 46.9984 30.9655 47.4549 31.422C47.9115 31.8786 48.5307 32.1351 49.1763 32.1351H58.9142ZM56.4797 27.2661H51.6108V22.3972H56.4797V27.2661ZM17.5284 19.9628V39.4384H22.3973V32.1351H29.7007C30.3464 32.1351 30.9656 31.8786 31.4221 31.422C31.8787 30.9655 32.1352 30.3463 32.1352 29.7006V19.9628C32.1352 19.3171 31.8787 18.6979 31.4221 18.2414C30.9656 17.7848 30.3464 17.5283 29.7007 17.5283H19.9629C19.3172 17.5283 18.698 17.7848 18.2414 18.2414C17.7849 18.6979 17.5284 19.3171 17.5284 19.9628ZM22.3973 22.3972H27.2662V27.2661H22.3973V22.3972ZM17.5284 49.1763V58.9141C17.5284 59.5597 17.7849 60.179 18.2414 60.6355C18.698 61.0921 19.3172 61.3485 19.9629 61.3485H29.7007C30.3464 61.3485 30.9656 61.0921 31.4221 60.6355C31.8787 60.179 32.1352 59.5597 32.1352 58.9141V51.6107H41.873V41.8729H37.0041V46.7418H34.5696V37.004H29.7007V46.7418H19.9629C19.3172 46.7418 18.698 46.9983 18.2414 47.4548C17.7849 47.9114 17.5284 48.5306 17.5284 49.1763ZM22.3973 51.6107H27.2662V56.4796H22.3973V51.6107Z" fill="#E6E6E6"/>
</g>
<defs>
<clipPath id="clip0_152_2547">
<path d="M9.64062 24.6294C9.64062 12.4791 19.4904 2.62939 31.6406 2.62939H46.3597C58.51 2.62939 68.3597 12.4791 68.3597 24.6294V61.3485H9.64062V24.6294Z" fill="white"/>
</clipPath>
</defs>
</svg>
