<svg width="110" height="110" viewBox="0 0 110 110" fill="none" xmlns="http://www.w3.org/2000/svg">
<g filter="url(#filter0_d_152_2547)">
<circle cx="55" cy="53" r="39" fill="#6B9071"/>
</g>
<g clip-path="url(#clip0_152_2547)">
<path d="M72.4797 60.7418V65.6107H77.3486V60.7418H72.4797ZM77.3486 75.3485H72.4797V70.4796H77.3486V75.3485ZM72.4797 65.6107V70.4796H67.6108V65.6107H72.4797ZM62.7419 51.004H67.6108V55.8729H72.4797V60.7418H62.7419V51.004ZM77.3486 51.004V55.8729H72.4797V51.004H77.3486ZM62.7419 70.4796H67.6108V75.3485H55.4385V70.4796H57.873V65.6107H62.7419V70.4796ZM53.0041 33.9628H57.873V38.8317H53.0041V33.9628ZM57.873 51.004H53.0041V43.7006H57.873V51.004ZM74.9142 46.1351C75.5598 46.1351 76.179 45.8786 76.6356 45.422C77.0921 44.9655 77.3486 44.3463 77.3486 43.7006V33.9628C77.3486 33.3171 77.0921 32.6979 76.6356 32.2414C76.179 31.7848 75.5598 31.5283 74.9142 31.5283H65.1763C64.5307 31.5283 63.9115 31.7848 63.4549 32.2414C62.9984 32.6979 62.7419 33.3171 62.7419 33.9628V43.7006C62.7419 44.3463 62.9984 44.9655 63.4549 45.422C63.9115 45.8786 64.5307 46.1351 65.1763 46.1351H74.9142ZM72.4797 41.2661H67.6108V36.3972H72.4797V41.2661ZM33.5284 33.9628V53.4384H38.3973V46.1351H45.7007C46.3464 46.1351 46.9656 45.8786 47.4221 45.422C47.8787 44.9655 48.1352 44.3463 48.1352 43.7006V33.9628C48.1352 33.3171 47.8787 32.6979 47.4221 32.2414C46.9656 31.7848 46.3464 31.5283 45.7007 31.5283H35.9629C35.3172 31.5283 34.698 31.7848 34.2414 32.2414C33.7849 32.6979 33.5284 33.3171 33.5284 33.9628ZM38.3973 36.3972H43.2662V41.2661H38.3973V36.3972ZM33.5284 63.1763V72.9141C33.5284 73.5597 33.7849 74.179 34.2414 74.6355C34.698 75.0921 35.3172 75.3485 35.9629 75.3485H45.7007C46.3464 75.3485 46.9656 75.0921 47.4221 74.6355C47.8787 74.179 48.1352 73.5597 48.1352 72.9141V65.6107H57.873V55.8729H53.0041V60.7418H50.5696V51.004H45.7007V60.7418H35.9629C35.3172 60.7418 34.698 60.9983 34.2414 61.4548C33.7849 61.9114 33.5284 62.5306 33.5284 63.1763ZM38.3973 65.6107H43.2662V70.4796H38.3973V65.6107Z" fill="#E6E6E6"/>
<path d="M72.4797 60.7418V65.6107H77.3486V60.7418H72.4797ZM77.3486 75.3485H72.4797V70.4796H77.3486V75.3485ZM72.4797 65.6107V70.4796H67.6108V65.6107H72.4797ZM62.7419 51.004H67.6108V55.8729H72.4797V60.7418H62.7419V51.004ZM77.3486 51.004V55.8729H72.4797V51.004H77.3486ZM62.7419 70.4796H67.6108V75.3485H55.4385V70.4796H57.873V65.6107H62.7419V70.4796ZM53.0041 33.9628H57.873V38.8317H53.0041V33.9628ZM57.873 51.004H53.0041V43.7006H57.873V51.004ZM74.9142 46.1351C75.5598 46.1351 76.179 45.8786 76.6356 45.422C77.0921 44.9655 77.3486 44.3463 77.3486 43.7006V33.9628C77.3486 33.3171 77.0921 32.6979 76.6356 32.2414C76.179 31.7848 75.5598 31.5283 74.9142 31.5283H65.1763C64.5307 31.5283 63.9115 31.7848 63.4549 32.2414C62.9984 32.6979 62.7419 33.3171 62.7419 33.9628V43.7006C62.7419 44.3463 62.9984 44.9655 63.4549 45.422C63.9115 45.8786 64.5307 46.1351 65.1763 46.1351H74.9142ZM72.4797 41.2661H67.6108V36.3972H72.4797V41.2661ZM33.5284 33.9628V53.4384H38.3973V46.1351H45.7007C46.3464 46.1351 46.9656 45.8786 47.4221 45.422C47.8787 44.9655 48.1352 44.3463 48.1352 43.7006V33.9628C48.1352 33.3171 47.8787 32.6979 47.4221 32.2414C46.9656 31.7848 46.3464 31.5283 45.7007 31.5283H35.9629C35.3172 31.5283 34.698 31.7848 34.2414 32.2414C33.7849 32.6979 33.5284 33.3171 33.5284 33.9628ZM38.3973 36.3972H43.2662V41.2661H38.3973V36.3972ZM33.5284 63.1763V72.9141C33.5284 73.5597 33.7849 74.179 34.2414 74.6355C34.698 75.0921 35.3172 75.3485 35.9629 75.3485H45.7007C46.3464 75.3485 46.9656 75.0921 47.4221 74.6355C47.8787 74.179 48.1352 73.5597 48.1352 72.9141V65.6107H57.873V55.8729H53.0041V60.7418H50.5696V51.004H45.7007V60.7418H35.9629C35.3172 60.7418 34.698 60.9983 34.2414 61.4548C33.7849 61.9114 33.5284 62.5306 33.5284 63.1763ZM38.3973 65.6107H43.2662V70.4796H38.3973V65.6107Z" fill="#E6E6E6"/>
</g>
<defs>
<filter id="filter0_d_152_2547" x="0.1" y="0.1" width="109.8" height="109.8" filterUnits="userSpaceOnUse" color-interpolation-filters="sRGB">
<feFlood flood-opacity="0" result="BackgroundImageFix"/>
<feColorMatrix in="SourceAlpha" type="matrix" values="0 0 0 0 0 0 0 0 0 0 0 0 0 0 0 0 0 0 127 0" result="hardAlpha"/>
<feOffset dy="2"/>
<feGaussianBlur stdDeviation="7.95"/>
<feComposite in2="hardAlpha" operator="out"/>
<feColorMatrix type="matrix" values="0 0 0 0 0 0 0 0 0 0 0 0 0 0 0 0 0 0 0.25 0"/>
<feBlend mode="normal" in2="BackgroundImageFix" result="effect1_dropShadow_152_2547"/>
<feBlend mode="normal" in="SourceGraphic" in2="effect1_dropShadow_152_2547" result="shape"/>
</filter>
<clipPath id="clip0_152_2547">
<path d="M25.6406 38.6294C25.6406 26.4791 35.4904 16.6294 47.6406 16.6294H62.3597C74.51 16.6294 84.3597 26.4791 84.3597 38.6294V75.3485H25.6406V38.6294Z" fill="white"/>
</clipPath>
</defs>
</svg>
