<svg width="36" height="35" viewBox="0 0 36 35" fill="none" xmlns="http://www.w3.org/2000/svg">
<g clip-path="url(#clip0_325_1479)">
<path d="M33.563 13.073H30.8402C30.6193 12.4799 30.3983 11.8868 30.1061 11.3723L32.0234 9.4501C32.615 8.86415 32.615 7.97807 32.0234 7.38497L27.7469 3.09751C27.1624 2.50441 26.2786 2.50441 25.687 3.09751L23.6984 5.09118C23.1852 4.86966 22.5936 4.64814 22.0804 4.42662V1.61834C22.0804 0.803717 21.4176 0.13916 20.605 0.13916H14.5608C13.7483 0.13916 13.0854 0.803717 13.0854 1.61834V4.26942C12.5009 4.49094 11.9806 4.71246 11.4674 4.93397L9.47884 2.9403C8.89438 2.3472 8.01056 2.3472 7.41897 2.9403L3.14241 7.22777C2.55082 7.81372 2.55082 8.6998 3.14241 9.2929L5.05973 11.2151C4.7675 11.8082 4.54655 12.3227 4.32559 12.9158H1.60285C0.790307 12.9158 0.127441 13.5804 0.127441 14.395V20.4546C0.127441 21.2692 0.790307 21.9338 1.60285 21.9338H4.10464C4.32559 22.5269 4.54655 23.1128 4.83878 23.7059L2.99986 25.5495C2.70763 25.8425 2.17306 26.7143 2.99986 27.6147L7.27642 31.9021C7.86088 32.4952 8.7447 32.4952 9.33629 31.9021L11.1039 30.13C11.6884 30.5016 12.28 30.7231 12.9429 30.9446V33.3813C12.9429 34.1959 13.6057 34.8605 14.4183 34.8605H20.4625C21.275 34.8605 21.9379 34.1959 21.8666 33.5385V31.1018C22.4511 30.8803 23.1139 30.5802 23.7055 30.2872L25.4732 32.0593C26.0576 32.6524 26.9414 32.6524 27.533 32.0593L31.8096 27.7719C32.4012 27.1859 32.4012 26.2998 31.8096 25.7067L29.9707 23.8631C30.2629 23.27 30.4839 22.6841 30.7048 22.091H33.563C34.3755 22.091 35.0384 21.4264 35.0384 20.6118V14.5522C35.0384 13.7376 34.3755 13.073 33.563 13.073ZM31.888 19.0612H29.6784C29.0156 19.0612 28.4311 19.5042 28.2814 20.1688C27.9821 21.2764 27.6186 22.3125 27.027 23.27C26.6563 23.8631 26.806 24.5991 27.2479 25.0422L28.7946 26.5928L26.5851 28.808L25.1096 27.3288C24.6677 26.8143 23.9336 26.7357 23.342 27.1073C22.3085 27.7004 21.275 28.1434 20.1702 28.4364C19.5074 28.5793 19.0655 29.1724 19.0655 29.837V31.9807H15.8937V31.9736H15.8224V29.8298C15.8224 29.1653 15.3805 28.5793 14.7176 28.4293C13.6057 28.1363 12.5009 27.6933 11.5458 27.1002C10.9543 26.7286 10.2201 26.8786 9.7782 27.3217L8.30279 28.8009L6.09324 26.5857L7.63992 25.035C8.08183 24.5205 8.23151 23.856 7.86088 23.2629C7.26929 22.3053 6.82738 21.2692 6.60642 20.1616C6.46387 19.4971 5.87228 19.054 5.20941 19.054H2.99986V15.8742H5.35909C6.02196 15.8742 6.60642 15.4311 6.7561 14.7666C6.97706 13.7304 7.41897 12.7657 8.01056 11.8082C8.38119 11.2151 8.23151 10.4791 7.7896 10.0361L6.09324 8.33536L8.30279 6.12017L9.99916 7.82087C10.5123 8.2639 11.1752 8.41397 11.7668 8.04239C12.729 7.52789 13.6841 7.08485 14.7176 6.86333C15.3805 6.72042 15.8224 6.12732 15.8224 5.46276V3.02605H18.9942V5.54137C18.9942 6.20592 19.4361 6.79188 20.099 6.94194C21.1325 7.16346 22.166 7.60649 23.0498 8.12099C23.6414 8.49257 24.3755 8.34251 24.8174 7.89947L26.5851 6.12732L28.7946 8.34251L27.0982 10.0432C26.5851 10.4862 26.5067 11.2223 26.8773 11.8154C27.3976 12.7086 27.8395 13.7376 28.1317 14.7737C28.2743 15.4383 28.8659 15.8813 29.5288 15.8813H31.888V19.0612Z" fill="#E6E6E6"/>
<path d="M17.4405 9.4502C13.0214 9.4502 9.40771 13.0731 9.40771 17.5035C9.40771 21.9339 13.0214 25.5568 17.4405 25.5568C21.8667 25.5568 25.4733 21.9339 25.4733 17.5035C25.4733 13.0731 21.8596 9.4502 17.4405 9.4502ZM17.4405 22.677C14.6394 22.677 12.2801 20.3832 12.2801 17.5035C12.2801 14.6952 14.5681 12.3299 17.4405 12.3299C20.3129 12.3299 22.6009 14.6237 22.6009 17.5035C22.6009 20.3118 20.2417 22.677 17.4405 22.677Z" fill="#E6E6E6"/>
</g>
<defs>
<clipPath id="clip0_325_1479">
<path d="M0.127441 17.4555C0.127441 7.81508 7.94252 0 17.5829 0C27.2233 0 35.0384 7.81508 35.0384 17.4555V35H0.127441V17.4555Z" fill="white"/>
</clipPath>
</defs>
</svg>
