<svg width="40" height="40" viewBox="0 0 40 40" fill="none" xmlns="http://www.w3.org/2000/svg">
<path fill-rule="evenodd" clip-rule="evenodd" d="M20 23C21.8565 23 23.637 22.2625 24.9497 20.9497C26.2625 19.637 27 17.8565 27 16C27 14.1435 26.2625 12.363 24.9497 11.0503C23.637 9.7375 21.8565 9 20 9C18.1435 9 16.363 9.7375 15.0503 11.0503C13.7375 12.363 13 14.1435 13 16C13 17.8565 13.7375 19.637 15.0503 20.9497C16.363 22.2625 18.1435 23 20 23ZM20 13C20.7956 13 21.5587 13.3161 22.1213 13.8787C22.6839 14.4413 23 15.2044 23 16C23 16.7956 22.6839 17.5587 22.1213 18.1213C21.5587 18.6839 20.7956 19 20 19C19.2044 19 18.4413 18.6839 17.8787 18.1213C17.3161 17.5587 17 16.7956 17 16C17 15.2044 17.3161 14.4413 17.8787 13.8787C18.4413 13.3161 19.2044 13 20 13Z" fill="#FFCD29"/>
<path fill-rule="evenodd" clip-rule="evenodd" d="M5 16.246C5 24.732 13.764 39 20 39C26.236 39 35 24.732 35 16.246C35 7.834 28.292 1 20 1C11.708 1 5 7.834 5 16.246ZM31 16.246C31 22.806 23.51 35 20 35C16.49 35 9 22.806 9 16.246C9 10.026 13.934 5 20 5C26.066 5 31 10.026 31 16.246Z" fill="#FFCD29"/>
</svg>
